<svg width="49" height="65" viewBox="0 0 49 65" fill="none" xmlns="http://www.w3.org/2000/svg">
<ellipse cx="7.57228" cy="8.07502" rx="7.47172" ry="7.53425" transform="rotate(-0.769874 7.57228 8.07502)" fill="#4B1B75"/>
<rect x="16.1343" y="0.737701" width="15.4436" height="15.6937" rx="3.62644" transform="rotate(-0.769874 16.1343 0.737701)" fill="#FC9E09"/>
<rect x="32.3267" y="0.520111" width="15.4436" height="15.6937" rx="3.62644" transform="rotate(-0.769874 32.3267 0.520111)" fill="#FC9E09"/>
<rect x="16.3491" y="16.7426" width="15.4436" height="15.6937" rx="3.62644" transform="rotate(-0.769874 16.3491 16.7426)" fill="#FC9E09"/>
<rect x="0.219238" y="16.9594" width="15.4436" height="15.6937" rx="3.62644" transform="rotate(-0.769874 0.219238 16.9594)" fill="#FC9E09"/>
<rect x="16.5645" y="32.7476" width="15.4436" height="15.6937" rx="3.62644" transform="rotate(-0.769874 16.5645 32.7476)" fill="#FC9E09"/>
<rect x="32.7568" y="32.53" width="15.4436" height="15.6937" rx="3.62644" transform="rotate(-0.769874 32.7568 32.53)" fill="#FC9E09"/>
<rect x="0.652832" y="49.2193" width="15.4436" height="15.6937" rx="3.62644" transform="rotate(-0.769874 0.652832 49.2193)" fill="#FC9E09"/>
<rect x="16.7827" y="49.0026" width="15.4436" height="15.6937" rx="3.62644" transform="rotate(-0.769874 16.7827 49.0026)" fill="#FC9E09"/>
<rect x="0.434082" y="32.9643" width="15.4436" height="15.6937" rx="3.62644" transform="rotate(-0.769874 0.434082 32.9643)" fill="#FC9E09"/>
</svg>
